<?xml version="1.0" encoding="utf-8"?>
<!-- Generator: Adobe Illustrator 25.2.3, SVG Export Plug-In . SVG Version: 6.00 Build 0)  -->
<svg version="1.1" id="Layer_1" xmlns="http://www.w3.org/2000/svg" xmlns:xlink="http://www.w3.org/1999/xlink" x="0px" y="0px"
	 width="523.8px" height="500px" viewBox="0 0 523.8 500" enable-background="new 0 0 523.8 500" xml:space="preserve">
<path id="Fill_12_Copy_2" fill-rule="evenodd" clip-rule="evenodd" fill="#FFFFFF" d="M145.4,142l34.2,170
	c1.4,6.9,5.1,13.1,10.6,17.5c5.5,4.4,12.7,7.1,19.5,6.6h218.8c7.3,0.6,14.3-2.2,19.8-6.6s9.3-10.6,10.6-17.5l32.6-170H145.4z
	 M171.7,352.6c-10.9-8.8-18.4-21.1-21.2-34.8l-37.6-186.9c-0.1-0.5-0.2-1-0.3-1.5l-20-99.2H14.8C6.7,30.1,0,23.5,0,15.3
	S6.7,0.4,14.8,0.4h89.9c7.1,0,13.2,5,14.6,11.9l20.1,100h370c4.4,0,8.6,2,11.5,5.4s4,7.9,3.1,12.2l-36,187.7
	c-2.8,13.8-10.3,26.2-21.2,34.9c-10.9,8.8-24.9,13-38.6,13.1H210c-0.4,0-0.7,0-1.1,0C195.5,365.8,182.3,361.1,171.7,352.6z
	 M194.7,455.3c-4.2,0-7.6,3.4-7.6,7.5c0,4.2,3.4,7.5,7.6,7.5c4.2,0,7.6-3.4,7.6-7.5C202.3,458.6,198.9,455.3,194.7,455.3z
	 M194.7,500c-20.6,0-37.3-16.7-37.3-37.2c0-20.5,16.8-37.2,37.3-37.2s37.3,16.7,37.3,37.2C232,483.3,215.3,500,194.7,500z
	 M442,455.3c-4.2,0-7.6,3.4-7.6,7.5c0,4.2,3.4,7.5,7.6,7.5c4.2,0,7.6-3.4,7.6-7.5C449.7,458.6,446.2,455.3,442,455.3z M442,500
	c-20.6,0-37.3-16.7-37.3-37.2c0-20.5,16.8-37.2,37.3-37.2c20.6,0,37.3,16.7,37.3,37.2C479.3,483.3,462.6,500,442,500z"/>
</svg>
