<?xml version="1.0" encoding="utf-8"?>
<!-- Generator: Adobe Illustrator 19.0.1, SVG Export Plug-In . SVG Version: 6.00 Build 0)  -->
<svg version="1.1" id="Слой_1" xmlns="http://www.w3.org/2000/svg" xmlns:xlink="http://www.w3.org/1999/xlink" x="0px" y="0px"
	 width="3184.2px" height="500px" viewBox="-1776.6 146.5 3184.2 500" enable-background="new -1776.6 146.5 3184.2 500"
	 xml:space="preserve">
<g>
	<polygon fill="#FFFFFF" points="-1327.3,166.8 -1470.2,166.8 -1647.9,357.5 -1647.9,166.8 -1776.6,166.8 -1776.6,626 -1647.9,626 
		-1647.9,511.1 -1599.3,459.4 -1468.3,626 -1317.4,626 -1514.8,370.2 	"/>
	<path fill="#FFFFFF" d="M-987,188.1c-38.7-20.5-82.1-30.8-130.7-30.8c-48.6,0-92,10.3-130.7,30.8c-38.7,20.5-69.1,49-91.2,85.3
		c-22.1,36.3-33.2,77.4-33.2,122.8c0,45.8,11.1,86.5,33.2,122.8c22.1,36.3,52.5,64.8,91.2,85.3c38.7,20.5,82.1,30.8,130.7,30.8
		c48.6,0,92-10.3,130.7-30.8c38.7-20.5,69.1-49,91.2-85.3c22.1-36.3,33.2-77.4,33.2-122.8c0-45.8-11.1-86.5-33.2-122.8
		C-917.9,237.1-948.3,208.7-987,188.1z M-1009.9,464.9c-11.1,19.7-25.7,35.1-44.6,46.2c-19,11.1-39.9,16.6-62.8,16.6
		c-22.9,0-43.8-5.5-62.8-16.6c-19-11.1-33.6-26.5-44.6-46.2c-11.1-20.1-16.6-43-16.6-68.7c0-26.1,5.5-49,16.6-68.7
		s25.7-35.1,44.6-46.2c18.6-11.1,39.5-16.6,62.8-16.6c22.9,0,43.8,5.5,62.8,16.6c19,11.1,33.6,26.5,44.6,46.2
		c11.1,20.1,16.6,43,16.6,68.7C-993.3,422.3-998.8,445.2-1009.9,464.9z"/>
	<polygon fill="#FFFFFF" points="-353.7,166.8 -523.8,166.8 -523.8,411.6 -726.4,166.8 -833.4,166.8 -833.4,626 -706.3,626 
		-706.3,381.2 -503.7,626 -495.8,626 -348.5,626 -348.5,437.3 -470.9,437.3 	"/>
	<polygon fill="#FFFFFF" points="-15.7,166.8 -348.5,166.8 -348.5,355.9 -227.3,355.6 -342.2,626 -223.4,626 -155.9,626 
		-155.9,269.9 -15.7,269.9 	"/>
	<path fill="#FFFFFF" d="M339.2,188.1c-38.7-20.5-82.1-30.8-130.7-30.8c-48.6,0-92,10.3-130.7,30.8c-38.7,20.5-69.1,49-91.2,85.3
		c-22.1,36.3-33.2,77.4-33.2,122.8c0,45.8,11.1,86.5,33.2,122.8c22.1,36.3,52.5,64.8,91.2,85.3c38.7,20.5,82.1,30.8,130.7,30.8
		c48.6,0,92-10.3,130.7-30.8c38.7-20.5,69.1-49,91.2-85.3c22.1-36.3,33.2-77.4,33.2-122.8c0-45.8-11.1-86.5-33.2-122.8
		C408.3,237.1,377.9,208.7,339.2,188.1z M316.3,464.9c-11.1,19.7-25.7,35.1-44.6,46.2c-19,11.1-39.9,16.6-62.8,16.6
		c-22.9,0-43.8-5.5-62.8-16.6c-19-11.1-33.6-26.5-44.6-46.2c-11.1-20.1-16.6-43-16.6-68.7c0-26.1,5.5-49,16.6-68.7
		s25.7-35.1,44.6-46.2c18.6-11.1,39.5-16.6,62.8-16.6c22.9,0,43.8,5.5,62.8,16.6c19,11.1,33.6,26.5,44.6,46.2
		c11.1,20.1,16.6,43,16.6,68.7C332.9,422.3,327.4,445.2,316.3,464.9z"/>
	<path fill="#FFFFFF" d="M1204.3,166.8h-127.9L890,588.5l-73.4-107c28.8-14.2,50.9-33.2,66.7-58c15.4-24.9,23.3-53.7,23.3-86.9
		c0-34.3-8.3-64.8-24.9-90c-16.6-25.7-40.3-45.4-70.7-59.2c-30.8-13.8-66.7-20.5-108.2-20.5h-210V626h129.9V504h70.7l83.3,122h229.4
		l36.3-89.2h194.3l35.9,89.2h135L1204.3,166.8z M755,386.3c-13.4,11.4-33.6,17.4-60.4,17.4h-72.3V269.1h72.3
		c26.8,0,47,5.9,60.4,17.8c13.4,11.8,20.1,28.4,20.1,49.7C775.5,358.3,768.4,374.9,755,386.3z M1080.3,441.2l59.2-146.9l59.2,146.9
		H1080.3z"/>
</g>
</svg>
