<?xml version="1.0" encoding="utf-8"?>
<!-- Generator: Adobe Illustrator 19.0.1, SVG Export Plug-In . SVG Version: 6.00 Build 0)  -->
<svg version="1.1" id="Слой_1" xmlns="http://www.w3.org/2000/svg" xmlns:xlink="http://www.w3.org/1999/xlink" x="0px" y="0px"
	 width="785.7px" height="500px" viewBox="-677.4 146.5 785.7 500" enable-background="new -677.4 146.5 785.7 500"
	 xml:space="preserve">
<path fill="#FFFFFF" d="M-39.2,620.5l-130.2-130c31.8-36.5,51.1-84.2,51.1-136.1c0-114.3-93.7-207.9-208.1-207.9
	s-208.1,93.6-208.1,207.9c0,114.3,93.7,207.9,208.1,207.9c51.4,0,98.7-18.9,135.1-50.1L-61,642.3c3.1,3.1,7.3,4.2,11.4,4.2
	s8.3-1,10.4-4.2C-32.9,636.1-32.9,626.8-39.2,620.5z M-326.4,531.1c-97.8,0-176.9-79-176.9-176.7c0-97.7,79.1-176.7,176.9-176.7
	c97.8,0,176.9,79,176.9,176.7C-149.5,452.1-228.6,531.1-326.4,531.1z"/>
</svg>
