<?xml version="1.0" encoding="utf-8"?>
<!-- Generator: Adobe Illustrator 25.2.3, SVG Export Plug-In . SVG Version: 6.00 Build 0)  -->
<svg version="1.1" id="Layer_1" xmlns="http://www.w3.org/2000/svg" xmlns:xlink="http://www.w3.org/1999/xlink" x="0px" y="0px"
	 width="383.3px" height="500px" viewBox="0 0 383.3 500" enable-background="new 0 0 383.3 500" xml:space="preserve">
<g>
	<polygon fill="#FFFFFF" points="210.8,481.9 211.5,481.2 212.2,480.3 199.5,470.6 	"/>
	<path fill="#FFFFFF" d="M383.3,196.3C383.3,93.5,296.5,11,191.7,11C86.8,11,0,93.5,0,196.3c0,40.7,14,79.1,38.4,110.9l0,0
		l132.7,173.2l0,0c4.6,6,11.2,8.8,16.9,9.6c5.7,0.8,12.9,0,19-4.6l0.9-0.7l0.8-0.8l-11.3-11.3l0,0l11.3,11.3l2-1.9l-11.3-11.3
		l12.7,9.7l132.7-173.2l0,0C369.3,275.4,383.3,237,383.3,196.3z M191.7,464.6L191.7,464.6L191.7,464.6L191.7,464.6L191.7,464.6z
		 M192.7,463.8l3.8-2.9l0,0L192.7,463.8L192.7,463.8z M190.5,465.5L190.5,465.5l-6.6,5.1l-0.1,0L190.5,465.5z M184.3,470.2l6.2-4.7
		l0,0L184.3,470.2z M191.7,464.7L191.7,464.7L191.7,464.7L191.7,464.7L191.7,464.7z M192.8,463.9l3.8-2.9c0,0,0,0,0,0L192.8,463.9
		L192.8,463.9z M191.7,454.5L63.8,287.7l-12.7,9.7l0.3-0.2l12.4-9.5l0,0c-20.4-26.6-31.8-58.2-31.8-91.4
		c0-84,71.3-153.3,159.7-153.3c88.4,0,159.7,69.3,159.7,153.3c0,33.2-11.4,64.9-31.8,91.4l0,0l12.4,9.5l0.3,0.2l-12.7-9.7
		L191.7,454.5z"/>
	<path fill="#FFFFFF" d="M273.8,179.8C273.8,179.8,273.8,179.8,273.8,179.8C273.7,179.8,273.7,179.8,273.8,179.8L273.8,179.8
		c-6.2-34.3-33.1-59.3-66.1-66.3l-3.3,15.6l0-0.2l3.3-15.4l-0.1,0c-46.2-9.7-89.4,20.7-98.9,65.8c-9.7,46.1,20.8,89.1,65.9,98.7l0,0
		c0,0,0.1,0,0.1,0c0,0,0,0,0,0l0,0c11,2.4,22.1,2.4,33.1,0l0,0C252.5,269.3,282.1,225,273.8,179.8L273.8,179.8z M242.3,185.6
		c5.3,28.5-13.7,56-40.9,61.2l3,15.7l0,0l-3-15.7l-0.2,0l-0.2,0.1c-6.5,1.4-12.9,1.4-19.4,0l-3.5,15.6l0-0.1l3.4-15.5l-0.2,0
		c-29-6.1-47.2-33.1-41.3-60.8c6.1-28.8,33.1-47,61.1-41.2C222.7,149.4,238.7,165.2,242.3,185.6L242.3,185.6l15.6-2.9l0.1,0
		L242.3,185.6z"/>
</g>
</svg>
