<?xml version="1.0" encoding="utf-8"?>
<!-- Generator: Adobe Illustrator 25.2.3, SVG Export Plug-In . SVG Version: 6.00 Build 0)  -->
<svg version="1.1" id="Layer_1" xmlns="http://www.w3.org/2000/svg" xmlns:xlink="http://www.w3.org/1999/xlink" x="0px" y="0px"
	 width="357.1px" height="500px" viewBox="0 0 357.1 500" enable-background="new 0 0 357.1 500" xml:space="preserve">
<path fill="#FFFFFF" d="M329.5,224.1L303.6,250v0L329.5,224.1l-25.9-25.9l-25.9-25.9L157.1,51.8l-25.9-25.9L105.3,0L79.5,25.9
	l25.9,25.9l0,0L79.5,25.9L27.7,77.7l25.9,25.9l0,0L27.7,77.7L1.8,103.6l25.9,25.9l25.9,25.9l94.7,94.7l-94.7,94.7l-25.9,25.9
	l25.9,25.9l0,0l-25.9-25.9L1.8,396.4l25.9,25.9l51.8,51.8l25.9-25.9v0l-25.9,25.9l25.9,25.9l25.9-25.9l25.9-25.9l120.6-120.6
	l25.9-25.9l25.9-25.9l25.9-25.9L329.5,224.1z M200,250L200,250l25.9-25.9L200,250z"/>
</svg>
