<?xml version="1.0" encoding="utf-8"?>
<!-- Generator: Adobe Illustrator 25.2.3, SVG Export Plug-In . SVG Version: 6.00 Build 0)  -->
<svg version="1.1" id="Layer_1" xmlns="http://www.w3.org/2000/svg" xmlns:xlink="http://www.w3.org/1999/xlink" x="0px" y="0px"
	 width="333.3px" height="500px" viewBox="0 0 333.3 500" enable-background="new 0 0 333.3 500" xml:space="preserve">
<path fill="#FFFFFF" d="M153,500H16.8c-5.5,0-10-4.5-10-10V10c0-5.5,4.5-10,10-10H153c5.5,0,10,4.5,10,10v480
	C163,495.5,158.6,500,153,500z M26.8,480H143V20H26.8V480z"/>
<path fill="#FFFFFF" d="M84.9,110.3c-18.6,0-33.8-15.1-33.8-33.8s15.1-33.8,33.8-33.8s33.8,15.1,33.8,33.8S103.5,110.3,84.9,110.3z
	 M84.9,62.8c-7.6,0-13.7,6.2-13.7,13.7c0,7.6,6.2,13.7,13.7,13.7c7.6,0,13.7-6.2,13.7-13.7C98.7,68.9,92.5,62.8,84.9,62.8z"/>
<path fill="#FFFFFF" d="M153,156.7h-37.9c-5.5,0-10-4.5-10-10s4.5-10,10-10H153c5.5,0,10,4.5,10,10S158.6,156.7,153,156.7z"/>
<path fill="#FFFFFF" d="M153,199.8h-25.4c-5.5,0-10-4.5-10-10c0-5.5,4.5-10,10-10H153c5.5,0,10,4.5,10,10
	C163,195.3,158.6,199.8,153,199.8z"/>
<path fill="#FFFFFF" d="M153,242.8h-37.9c-5.5,0-10-4.5-10-10s4.5-10,10-10H153c5.5,0,10,4.5,10,10S158.6,242.8,153,242.8z"/>
<path fill="#FFFFFF" d="M153,285.8h-25.4c-5.5,0-10-4.5-10-10c0-5.5,4.5-10,10-10H153c5.5,0,10,4.5,10,10
	C163,281.4,158.6,285.8,153,285.8z"/>
<path fill="#FFFFFF" d="M153,328.9h-37.9c-5.5,0-10-4.5-10-10c0-5.5,4.5-10,10-10H153c5.5,0,10,4.5,10,10
	C163,324.4,158.6,328.9,153,328.9z"/>
<path fill="#FFFFFF" d="M153,371.9h-25.4c-5.5,0-10-4.5-10-10s4.5-10,10-10H153c5.5,0,10,4.5,10,10S158.6,371.9,153,371.9z"/>
<path fill="#FFFFFF" d="M153,415h-37.9c-5.5,0-10-4.5-10-10c0-5.5,4.5-10,10-10H153c5.5,0,10,4.5,10,10C163,410.5,158.6,415,153,415
	z"/>
<path fill="#FFFFFF" d="M153,458h-25.4c-5.5,0-10-4.5-10-10c0-5.5,4.5-10,10-10H153c5.5,0,10,4.5,10,10C163,453.5,158.6,458,153,458
	z"/>
<path fill="#FFFFFF" d="M269.6,500c-3.5,0-6.8-1.8-8.6-4.9l-47.6-79.3c-1.8-3.1-1.9-6.9-0.1-10.1c1.8-3.1,5.1-5.1,8.7-5.1h95.2
	c3.6,0,6.9,1.9,8.7,5.1c1.8,3.1,1.7,7-0.1,10.1l-47.6,79.3C276.4,498.2,273.1,500,269.6,500z M239.7,420.7l29.9,49.8l29.9-49.8
	H239.7z"/>
<path fill="#FFFFFF" d="M317.2,420.7H222c-5.5,0-10-4.5-10-10V87.5c0-5.5,4.5-10,10-10h95.2c5.5,0,10,4.5,10,10v323.2
	C327.2,416.3,322.7,420.7,317.2,420.7z M232,400.7h75.2V97.5H232V400.7z"/>
<path fill="#FFFFFF" d="M317.2,97.5H222c-5.5,0-10-4.5-10-10V35.8C212,16.1,228.1,0,247.9,0h43.5c19.8,0,35.8,16.1,35.8,35.8v51.7
	C327.2,93,322.7,97.5,317.2,97.5z M232,77.5h75.2V35.8c0-8.7-7.1-15.8-15.8-15.8h-43.5c-8.7,0-15.8,7.1-15.8,15.8V77.5z"/>
</svg>
