<?xml version="1.0" encoding="utf-8"?>
<!-- Generator: Adobe Illustrator 25.2.3, SVG Export Plug-In . SVG Version: 6.00 Build 0)  -->
<svg version="1.1" id="Layer_1" xmlns="http://www.w3.org/2000/svg" xmlns:xlink="http://www.w3.org/1999/xlink" x="0px" y="0px"
	 width="520px" height="500px" viewBox="0 0 520 500" enable-background="new 0 0 520 500" xml:space="preserve">
<path id="Shape" fill-rule="evenodd" clip-rule="evenodd" fill="#FFFFFF" d="M0,116.1C6.6,79.5,36.5,40.7,66.2,12.3v0
	C88.6-3,111.4-5.3,134.6,12.5L202,77c15.6,15.6,15.9,43.2,6,64.5c-6.9,9.5-14.2,19-21.5,28.6c-4.4,5.7-8.7,11.4-13,17
	c-3,10.9,2.4,22.3,11,32.9c11,14.3,27.7,30.1,43,44.7c2.8,2.7,5.6,5.3,8.2,7.8c17,16.3,38.1,36.1,56.4,48.7c0.6,0.4,1.1,0.8,1.8,1.2
	c7.9,5.5,19.9,13.7,30.4,10.1l45.4-32.1c21.9-10.5,49-11.3,69.9,5.3l67.7,65c16.2,16.1,17.6,47.6,0,64.5
	c-26.6,24.1-70.5,60.1-106.1,63.8c-40.3,5.9-82.6-12.8-125.1-40.8c-42.5-27.9-85.6-66.4-125.3-104.6C70.5,276.4,1,193,0,116.1z
	 M179.3,98.9l-67.2-64.8l0,0c-8.9-4.1-15.1-5.9-24,0.5C57.9,65.5,37,93.8,32.2,117.1c1.7,57.8,63.6,140.2,141.3,214.9
	c39.1,37.6,81,74.7,120.6,100.7c39.4,25.9,76,39.7,102.1,36c23.8-4.5,45.8-22.1,67.1-39c7.4-5.9,14.6-11.7,21.8-16.8
	c3.5-7.6,4.4-13.2-0.5-20.6l-67.4-64.8c-10.1-5-19.2-5.2-30.5-1c-3.9,2.7-7.8,5.5-11.6,8.2c-10.6,7.5-21.2,15-31.8,22.5
	c-21.2,13.5-49.7,3-69.9-10.8c-20.4-14-40.5-33.4-57-49.2c-1.1-1-2.2-2.1-3.2-3.1c-3.4-3.2-7-6.6-10.7-10.1
	c-14.6-13.7-31.1-29.2-43.7-45.5c-15.2-19.8-25.8-44.4-11-69.6l32-42C183,117.1,185.3,108.1,179.3,98.9z"/>
</svg>
