<?xml version="1.0" encoding="utf-8"?>
<!-- Generator: Adobe Illustrator 19.0.1, SVG Export Plug-In . SVG Version: 6.00 Build 0)  -->
<svg version="1.1" id="Слой_1" xmlns="http://www.w3.org/2000/svg" xmlns:xlink="http://www.w3.org/1999/xlink" x="0px" y="0px"
	 width="485.9px" height="500px" viewBox="-410 147 485.9 500" enable-background="new -410 147 485.9 500" xml:space="preserve">
<g>
	<path fill="#FFFFFF" d="M-122.1,393l-72.6-49.3c-1.8-1.3-4.1-1.3-6,0c-1.8,1.2-3,3.6-3,6.1v98.7c0,2.5,1.1,4.8,3,6.1
		c0.9,0.6,1.9,0.9,3,0.9c1,0,2.1-0.3,3-0.9l72.6-49.3c1.8-1.3,3-3.6,3-6.1C-119.1,396.6-120.2,394.3-122.1,393z"/>
	<path fill="#FFFFFF" d="M-167,147c-134,0-243,112.1-243,250c0,137.9,109,250,243,250c134,0,243-112.1,243-250
		C76,259.1-33,147-167,147z M-167,640c-130.1,0-235.9-109-235.9-243c0-134,105.8-243,235.9-243c130.1,0,235.9,109,235.9,243
		C68.9,531-36.9,640-167,640z"/>
</g>
</svg>
