<?xml version="1.0" encoding="utf-8"?>
<!-- Generator: Adobe Illustrator 25.2.3, SVG Export Plug-In . SVG Version: 6.00 Build 0)  -->
<svg version="1.1" id="Layer_1" xmlns="http://www.w3.org/2000/svg" xmlns:xlink="http://www.w3.org/1999/xlink" x="0px" y="0px"
	 width="500px" height="500px" viewBox="0 0 500 500" enable-background="new 0 0 500 500" xml:space="preserve">
<g>
	
		<rect x="326.8" y="246.9" transform="matrix(0.7071 -0.7071 0.7071 0.7071 -80.1441 306.515)" fill="#FFFFFF" width="6.2" height="6.2"/>
	<path fill="#FFFFFF" d="M329.9,245.6l-4.4-4.4l-4.4-4.4l-95.6-95.6l-4.4-4.4l-4.4-4.4l-4.4,4.4l-8.8,8.8l4.4,4.4l0,0l-4.4-4.4
		L199,150l4.4,4.4l4.4,4.4L299,250l-91.2,91.2l-4.4,4.4L199,350l4.4,4.4l8.8,8.8l4.4-4.4l0,0l-4.4,4.4l4.4,4.4l4.4-4.4l4.4-4.4
		l95.6-95.6l4.4-4.4l4.4-4.4l-4.4-4.4L329.9,245.6z M312.2,245.6l-4.4,4.4l0,0L312.2,245.6z"/>
	<path fill="#FFFFFF" d="M250,0C112.2,0,0,112.2,0,250c0,137.9,112.2,250,250,250c137.9,0,250-112.1,250-250
		C500,112.2,387.9,0,250,0z M250,487.5C119,487.5,12.5,381,12.5,250S119,12.5,250,12.5S487.5,119,487.5,250S381,487.5,250,487.5z"/>
</g>
</svg>
