<?xml version="1.0" encoding="utf-8"?>
<!-- Generator: Adobe Illustrator 25.2.3, SVG Export Plug-In . SVG Version: 6.00 Build 0)  -->
<svg version="1.1" id="Layer_1" xmlns="http://www.w3.org/2000/svg" xmlns:xlink="http://www.w3.org/1999/xlink" x="0px" y="0px"
	 width="500px" height="500px" viewBox="0 0 500 500" enable-background="new 0 0 500 500" xml:space="preserve">
<path id="Combined_Shape_Copy_2" fill-rule="evenodd" clip-rule="evenodd" fill="#FFFFFF" d="M208.1,415.8
	C93.7,415.8,0,322.2,0,207.9C0,93.6,93.7,0,208.1,0s208.1,93.6,208.1,207.9c0,51.9-19.3,99.5-51.1,136.1l130.2,130
	c6.2,6.2,6.2,15.6,0,21.8c-2.1,3.1-6.2,4.2-10.4,4.2s-8.3-1-11.4-4.2L343.2,365.7C306.8,396.9,259.6,415.8,208.1,415.8z M208.1,31.2
	c-97.8,0-176.9,79-176.9,176.7s79.1,176.7,176.9,176.7c97.8,0,176.9-79,176.9-176.7S305.9,31.2,208.1,31.2z"/>
</svg>
