<?xml version="1.0" encoding="utf-8"?>
<!-- Generator: Adobe Illustrator 25.2.3, SVG Export Plug-In . SVG Version: 6.00 Build 0)  -->
<svg version="1.1" id="Layer_1" xmlns="http://www.w3.org/2000/svg" xmlns:xlink="http://www.w3.org/1999/xlink" x="0px" y="0px"
	 width="846.2px" height="500px" viewBox="0 0 846.2 500" enable-background="new 0 0 846.2 500" xml:space="preserve">
<path id="Path" fill-rule="evenodd" clip-rule="evenodd" fill="#FFFFFF" d="M414,499.3h50.6c0,0,15.3-1.7,23.1-10.4
	c7.2-8,6.9-23,6.9-23s-1-71.2,30.5-81.6c31.1-10.2,71,68.1,113.2,98.1c31.9,22.8,56.2,16.9,56.2,16.9l113,0.1
	c0,0,59.1-4.7,31.1-52.9c-2.3-3.9-16.3-35.7-84-100.8c-70.8-68.2-61.3-57.2,24-175.2c52-71.8,72.8-115.7,66.2-134.5
	c-6.1-17.9-44.1-14.8-44.1-14.8l-127.5-0.1c0,0-9.5-1-16.5,3.4c-6.8,4.3-11.2,15.3-11.2,15.3s-20.1,56.6-47,103.9
	c-56.6,99.8-79.3,105-88.6,98.9c-21.6-14.5-16.2-58-16.2-89c0-96.7,14.2-137-27.5-147.5c-13.8-3.4-24-5.7-59.4-6.1
	C361.5-0.3,323,0.3,301.3,11.3c-14.5,7.4-25.7,23.8-18.8,24.7c8.4,1.2,27.4,5.3,37.5,19.6c13.1,18.4,12.6,59.7,12.6,59.7
	s7.5,113.9-17.5,128c-17.1,9.7-40.7-10.1-91.2-100.6C198,96.2,178.5,44,178.5,44s-3.8-9.6-10.5-14.7c-8.2-6.2-19.6-8.2-19.6-8.2
	L27.6,21.2c0,0-18.2,0.5-24.8,8.7c-5.9,7.3-0.5,22.4-0.5,22.4S97,283.7,204.1,399.4C302.4,505.6,414,499.3,414,499.3z"/>
</svg>
