<?xml version="1.0" encoding="utf-8"?>
<!-- Generator: Adobe Illustrator 25.2.3, SVG Export Plug-In . SVG Version: 6.00 Build 0)  -->
<svg version="1.1" id="Layer_1" xmlns="http://www.w3.org/2000/svg" xmlns:xlink="http://www.w3.org/1999/xlink" x="0px" y="0px"
	 width="500px" height="500px" viewBox="0 0 500 500" enable-background="new 0 0 500 500" xml:space="preserve">
<path id="Shape" fill-rule="evenodd" clip-rule="evenodd" fill="#FFFFFF" d="M1.1,500l35.1-128.4C14.6,334,3.2,291.4,3.2,247.7
	C3.3,111.1,114.4,0,251,0c66.3,0,128.5,25.8,175.3,72.7c46.8,46.8,72.5,109.1,72.5,175.3C498.7,384.6,387.5,495.7,251,495.7
	c-41.5,0-82.3-10.4-118.5-30.2L1.1,500z M138.6,420.7c34.9,20.7,68.2,33.1,112.3,33.2c113.5,0,206-92.4,206-205.9
	c0-113.8-92-206-205.9-206.1c-113.6,0-206,92.4-206,205.9c0,46.4,13.6,81.1,36.4,117.4l-20.8,76L138.6,420.7z M367.3,301.3
	c4.3,2.1,7.2,3.5,8.5,5.6c1.6,2.6,1.6,15-3.6,29.5c-5.2,14.5-29.9,27.7-41.8,29.4c-10.7,1.6-24.2,2.2-39-2.5
	c-9-2.9-20.5-6.7-35.3-13c-57.9-25-97.1-81.1-104.6-91.9c-0.5-0.8-0.9-1.3-1.1-1.6l-0.1-0.1c-3.3-4.5-25.2-33.7-25.2-63.9
	c0-28.5,14-43.4,20.4-50.3c0.5-0.5,0.9-0.9,1.2-1.3c5.7-6.2,12.4-7.8,16.5-7.8l11.9,0.2c0.4,0,0.9,0,1.4,0c3.6,0,8.1,0,12.6,10.6
	c1.6,3.8,3.9,9.4,6.3,15.3c5.5,13.3,11.7,28.5,12.8,30.7c1.6,3.1,2.6,6.7,0.5,10.9c-0.3,0.6-0.6,1.2-0.9,1.8
	c-1.6,3.2-2.7,5.5-5.4,8.5c-1,1.2-2.1,2.5-3.2,3.8c-2.1,2.6-4.3,5.2-6.1,7c-3.1,3.1-6.3,6.4-2.7,12.6c3.6,6.2,16,26.5,34.4,42.9
	c19.8,17.6,36.9,25.1,45.7,28.9c1.7,0.7,3.1,1.3,4.1,1.9c6.2,3.1,9.8,2.6,13.4-1.5c3.6-4.1,15.5-18.1,19.6-24.3
	c4.1-6.2,8.3-5.2,13.9-3.1c5.7,2.1,36.1,17,42.3,20.1C365.1,300.2,366.3,300.8,367.3,301.3z"/>
</svg>
