<?xml version="1.0" encoding="utf-8"?>
<!-- Generator: Adobe Illustrator 25.2.3, SVG Export Plug-In . SVG Version: 6.00 Build 0)  -->
<svg version="1.1" id="Layer_1" xmlns="http://www.w3.org/2000/svg" xmlns:xlink="http://www.w3.org/1999/xlink" x="0px" y="0px"
	 width="541.7px" height="500px" viewBox="0 0 541.7 500" enable-background="new 0 0 541.7 500" xml:space="preserve">
<path fill="#FFFFFF" d="M270.9,500c-61.1,0-122.2-1.6-160.4-4.8C6.2,486.5,0.6,396.4,0,250.1C0.6,103.6,6.2,13.5,110.5,4.8
	c76.6-6.4,244.4-6.4,320.7,0l0,0c104.2,8.7,109.9,98.8,110.4,245.1c-0.6,146.5-6.2,236.6-110.4,245.3C393,498.4,332,500,270.9,500z
	 M270.9,41.7c-60.1,0-120.3,1.5-157,4.6c-59.5,5-71.6,39.2-72.2,203.8c0.6,164.4,12.8,198.6,72.3,203.6c73.4,6.1,240.6,6.1,313.8,0
	c59.4-5,71.6-39.3,72.2-203.8c-0.6-164.4-12.8-198.6-72.2-203.6C391.1,43.2,331.1,41.7,270.9,41.7z"/>
<path opacity="0.6488" fill="#FFFFFF" enable-background="new    " d="M208.3,354.2V166.7L375,260.2L208.3,354.2L208.3,354.2z"/>
</svg>
